<svg width="20" height="20" fill="none" xmlns="http://www.w3.org/2000/svg"><rect width="20" height="20" rx="4" fill="#fff"/><path d="M5 17V3h5.503c1.054 0 1.953.19 2.698.567.749.374 1.319.905 1.71 1.593.394.684.592 1.488.592 2.413 0 .93-.2 1.73-.6 2.4-.4.665-.978 1.175-1.736 1.53-.754.356-1.667.534-2.739.534H6.744V9.658h3.208c.563 0 1.03-.077 1.403-.232.372-.155.65-.388.83-.697.187-.31.28-.695.28-1.156 0-.465-.093-.857-.28-1.176-.18-.319-.46-.56-.837-.724-.372-.169-.842-.253-1.41-.253H7.95V17H5Zm7.533-6.371L16 17h-3.256l-3.392-6.371h3.181Z" fill="#111"/></svg>